<svg xmlns="http://www.w3.org/2000/svg" version="1.1" xmlns:xlink="http://www.w3.org/1999/xlink" xmlns:svgjs="http://svgjs.dev/svgjs" width="512" height="512"><svg width="512" height="512" viewBox="0 0 512 512" fill="none" xmlns="http://www.w3.org/2000/svg">
<rect width="512" height="512" fill="black"></rect>
<path fill-rule="evenodd" clip-rule="evenodd" d="M274.837 386.284L386.665 199.441C397.929 180.62 403.562 171.21 405.089 163.734C409.569 141.805 397.153 119.939 376.013 112.527C368.806 110 357.83 110 335.879 110H176.121C154.17 110 143.194 110 135.987 112.527C114.847 119.939 102.431 141.805 106.911 163.734C108.438 171.21 114.071 180.62 125.335 199.441L237.163 386.284C241.155 392.954 243.151 396.289 245.267 398.076C251.464 403.308 260.536 403.308 266.733 398.076C268.849 396.289 270.845 392.954 274.837 386.284ZM241.766 138.589V335.056L140.487 169.092C136.576 162.682 134.62 159.477 134.081 156.933C132.5 149.469 136.704 141.99 143.907 139.453C146.362 138.589 150.119 138.589 157.635 138.589H241.766ZM270.376 335.056V138.589H353.943C361.439 138.589 365.187 138.589 367.64 139.451C374.835 141.982 379.042 149.444 377.478 156.902C376.945 159.444 375.002 162.646 371.116 169.05L270.376 335.056Z" fill="white"></path>
</svg><style>@media (prefers-color-scheme: light) { :root { filter: none; } }
@media (prefers-color-scheme: dark) { :root { filter: none; } }
</style></svg>